<svg xmlns="http://www.w3.org/2000/svg" viewBox="226.163 226.163 47.674 47.674" width="47.674" height="47.674">
  <defs>
    <linearGradient gradientUnits="userSpaceOnUse" x1="250" y1="218.604" x2="250" y2="281.395" id="gradient-1" gradientTransform="matrix(0.840806, -0.541337, 0.435183, 0.675927, -70.113663, 217.958)">
      <stop offset="0" style="stop-color: rgb(103, 58, 183);"/>
      <stop offset="1" style="stop-color: rgb(33, 150, 243);"/>
    </linearGradient>
  </defs>
  <rect x="226.163" y="226.163" width="47.674" height="47.674" style="stroke-linecap: round; fill: rgb(15, 23, 42); fill-rule: nonzero; stroke-linejoin: round; stroke: rgb(15, 23, 42); stroke-width: 7px;"/>
  <path d="M 261.5 256.458 C 261.5 258.24 261.051 259.928 260.152 261.523 C 259.254 263.118 257.857 264.409 255.963 265.398 C 254.069 266.386 251.625 266.88 248.63 266.88 C 247.133 266.88 245.819 266.813 244.688 266.678 C 243.558 266.543 242.506 266.322 241.532 266.015 C 240.559 265.708 239.548 265.308 238.5 264.814 L 238.5 256.908 C 240.282 257.806 242.079 258.491 243.89 258.963 C 245.702 259.434 247.342 259.67 248.809 259.67 C 249.693 259.67 250.416 259.565 250.977 259.356 C 251.539 259.146 251.954 258.858 252.223 258.491 C 252.493 258.124 252.628 257.701 252.628 257.222 C 252.628 256.653 252.43 256.17 252.032 255.773 C 251.636 255.376 251.003 254.961 250.135 254.527 C 249.267 254.092 248.121 253.553 246.698 252.91 C 245.486 252.341 244.389 251.757 243.407 251.158 C 242.427 250.559 241.588 249.873 240.892 249.102 C 240.196 248.331 239.66 247.429 239.286 246.396 C 238.912 245.363 238.724 244.142 238.724 242.735 C 238.724 240.624 239.245 238.853 240.285 237.423 C 241.326 235.993 242.779 234.919 244.643 234.2 C 246.507 233.481 248.66 233.121 251.1 233.121 C 253.242 233.121 255.17 233.361 256.884 233.84 C 258.599 234.319 260.138 234.866 261.5 235.48 L 258.782 242.33 C 257.375 241.687 255.99 241.174 254.627 240.792 C 253.265 240.41 251.999 240.219 250.831 240.219 C 250.067 240.219 249.442 240.313 248.955 240.5 C 248.469 240.687 248.109 240.938 247.877 241.252 C 247.645 241.567 247.529 241.926 247.529 242.33 C 247.529 242.839 247.728 243.296 248.124 243.701 C 248.521 244.105 249.187 244.543 250.123 245.015 C 251.059 245.486 252.336 246.096 253.953 246.845 C 255.555 247.564 256.918 248.339 258.041 249.17 C 259.164 250.001 260.021 250.996 260.613 252.157 C 261.205 253.318 261.5 254.751 261.5 256.458 Z" style="fill: url(#gradient-1); text-transform: capitalize; white-space: pre;"/>
</svg>
